<svg width="30" height="29" viewBox="0 0 30 29" fill="none" xmlns="http://www.w3.org/2000/svg">
<path d="M15 0C23.0113 0 29.5 6.48875 29.5 14.5C29.4992 17.5381 28.5457 20.4995 26.7737 22.9673C25.0017 25.4351 22.5004 27.2851 19.6219 28.2569C18.8969 28.4019 18.625 27.9488 18.625 27.5681C18.625 27.0788 18.6431 25.52 18.6431 23.5806C18.6431 22.2213 18.19 21.3512 17.6644 20.8981C20.8906 20.5356 24.28 19.3031 24.28 13.7387C24.28 12.1437 23.7181 10.8569 22.7938 9.84187C22.9388 9.47937 23.4463 7.99312 22.6488 5.99937C22.6488 5.99937 21.4344 5.60063 18.6613 7.48563C17.5013 7.15938 16.2688 6.99625 15.0363 6.99625C13.8038 6.99625 12.5713 7.15938 11.4113 7.48563C8.63813 5.61875 7.42375 5.99937 7.42375 5.99937C6.62625 7.99312 7.13375 9.47937 7.27875 9.84187C6.35438 10.8569 5.7925 12.1619 5.7925 13.7387C5.7925 19.285 9.1638 20.5356 12.39 20.8981C11.9731 21.2606 11.5925 21.895 11.4656 22.8375C10.6319 23.2181 8.5475 23.8344 7.2425 21.6412C6.97063 21.2062 6.155 20.1369 5.01313 20.155C3.79875 20.1731 4.52375 20.8437 5.03125 21.1156C5.6475 21.46 6.35438 22.7469 6.5175 23.1637C6.8075 23.9794 7.75 25.5381 11.3931 24.8675C11.3931 26.0819 11.4113 27.2238 11.4113 27.5681C11.4113 27.9488 11.1394 28.3838 10.4144 28.2569C7.52641 27.2956 5.01446 25.4493 3.23486 22.98C1.45527 20.5107 0.498402 17.5438 0.500002 14.5C0.500002 6.48875 6.98875 0 15 0Z" fill="black"/>
</svg>
