<svg width="32" height="29" viewBox="0 0 32 29" fill="none" xmlns="http://www.w3.org/2000/svg">
<path d="M16 0C24.0113 0 30.5 6.48875 30.5 14.5C30.4992 17.5381 29.5457 20.4995 27.7737 22.9673C26.0017 25.4351 23.5004 27.2851 20.6219 28.2569C19.8969 28.4019 19.625 27.9488 19.625 27.5681C19.625 27.0788 19.6431 25.52 19.6431 23.5806C19.6431 22.2213 19.19 21.3512 18.6644 20.8981C21.8906 20.5356 25.28 19.3031 25.28 13.7387C25.28 12.1437 24.7181 10.8569 23.7938 9.84187C23.9388 9.47937 24.4463 7.99312 23.6488 5.99937C23.6488 5.99937 22.4344 5.60063 19.6613 7.48563C18.5013 7.15938 17.2688 6.99625 16.0363 6.99625C14.8038 6.99625 13.5713 7.15938 12.4113 7.48563C9.63813 5.61875 8.42375 5.99937 8.42375 5.99937C7.62625 7.99312 8.13375 9.47937 8.27875 9.84187C7.35438 10.8569 6.7925 12.1619 6.7925 13.7387C6.7925 19.285 10.1638 20.5356 13.39 20.8981C12.9731 21.2606 12.5925 21.895 12.4656 22.8375C11.6319 23.2181 9.5475 23.8344 8.2425 21.6412C7.97063 21.2062 7.155 20.1369 6.01313 20.155C4.79875 20.1731 5.52375 20.8437 6.03125 21.1156C6.6475 21.46 7.35438 22.7469 7.5175 23.1637C7.8075 23.9794 8.75 25.5381 12.3931 24.8675C12.3931 26.0819 12.4113 27.2238 12.4113 27.5681C12.4113 27.9488 12.1394 28.3838 11.4144 28.2569C8.52641 27.2956 6.01446 25.4493 4.23486 22.98C2.45527 20.5107 1.4984 17.5438 1.5 14.5C1.5 6.48875 7.98875 0 16 0Z" fill="black"/>
</svg>
