<svg width="29" height="29" viewBox="0 0 29 29" fill="none" xmlns="http://www.w3.org/2000/svg">
<path d="M14.5 0C6.49186 0 0 6.49186 0 14.5C0 22.5081 6.49186 29 14.5 29C22.5081 29 29 22.5081 29 14.5C29 6.49186 22.5081 0 14.5 0ZM16.9728 21.6464C16.5455 21.8406 14.8237 22.0348 13.7362 20.7272C13.1406 20.0411 12.0984 18.5717 11.0045 16.6103C10.4283 16.6103 10.0529 16.6103 9.6192 16.5714V19.575C9.6192 21.0962 10.0076 20.9473 11.2893 21.1221V21.6464C10.8426 21.627 9.79397 21.5946 8.98482 21.5946C8.13683 21.5946 7.29531 21.6335 6.80982 21.6464V21.1221C7.81317 20.9344 8.23393 21.0379 8.23393 19.575V12.4933C8.23393 11.0304 7.81964 11.1339 6.80982 10.9462V10.4219C8.47991 10.4866 10.2471 10.383 11.3993 10.383C13.4513 10.383 15.0179 11.3152 15.0179 13.3348C15.0179 14.7007 13.9368 16.0665 12.4804 16.4096C13.3607 17.9761 14.4223 19.3614 15.2121 20.2223C15.6781 20.7272 16.3254 21.1739 16.9728 21.1739V21.6464ZM18.4551 12.9076C16.9469 12.9076 16.3708 11.8913 16.3708 10.8232V8.73884C16.3708 7.94911 16.9404 6.77098 18.5717 6.77098C20.2029 6.77098 20.5395 7.92969 20.5395 7.92969L19.8469 8.39576C19.8469 8.39576 19.4908 7.58661 18.5717 7.58661C18.0603 7.58661 17.2964 8.05915 17.2964 8.86183V10.5967C17.2964 11.4641 17.7237 12.1049 18.4551 12.1049C19.3679 12.1049 19.8469 11.3993 19.8469 10.3701H18.6882V9.67746H20.656C20.656 11.0045 20.9603 12.9076 18.4551 12.9076ZM10.9138 15.8011C10.3054 15.8011 10.0335 15.7817 9.6192 15.7493V11.2375C10.0335 11.1987 10.5902 11.1987 11.0757 11.1987C12.5839 11.1987 13.4837 11.9884 13.4837 13.4319C13.4837 14.8496 12.5127 15.8011 10.9138 15.8011Z" fill="#3BEDB3"/>
</svg>
