<svg width="32" viewBox="0 0 1024 1024" fill="none" xmlns="http://www.w3.org/2000/svg"><path d="M420.3 470.3C429 464 433.2 453.6 433.2 439.3C433.5 432.5 432.1 425.8 429.1 419.7C426.4 414.8 422.4 410.7 417.5 407.8C412.419 404.719 406.776 402.679 400.9 401.8C394.5 400.6 388 400 381.6 400.1H311.3V479.8H387.4C400.5 479.9 411.6 476.7 420.3 470.3ZM432.1 542.3C422.3 534.8 409.2 531.1 392.9 531.1H311.1V625.1H391.3C398.8 625.1 405.7 624.4 412.4 623C418.739 621.76 424.782 619.316 430.2 615.8C435.3 612.5 439.4 608 442.5 602.2C445.5 596.4 447 589 447 580.1C447 562.4 442 549.9 432.1 542.3ZM512 64C264.6 64 64 264.6 64 512C64 759.4 264.6 960 512 960C759.4 960 960 759.4 960 512C960 264.6 759.4 64 512 64ZM598.5 350.9H736.9V384.6H598.5V350.9ZM512 628.8C505.527 641.088 496.283 651.701 485 659.8C473.2 668 460.1 674 446.2 677.5C431.657 681.397 416.655 683.314 401.6 683.2H236V342.1H397C413.3 342.1 428.1 343.6 441.6 346.4C455 349.2 466.4 354 476 360.5C485.5 367 493 375.7 498.3 386.5C503.5 397.2 506.2 410.6 506.2 426.5C506.2 443.7 502.3 457.9 494.5 469.4C486.6 480.9 475.2 490.2 459.7 497.5C480.8 503.5 496.3 514.2 506.5 529.2C516.9 544.4 522 562.6 522 584C522 601.4 518.7 616.3 512 628.8ZM790.8 576H612.4C612.4 595.4 619.1 614 629.2 624C639.4 633.9 654 638.9 673.1 638.9C686.9 638.9 698.6 635.4 708.6 628.5C718.5 621.6 724.5 614.3 726.7 606.7H786.5C776.9 636.4 762.3 657.6 742.5 670.4C722.9 683.2 698.9 689.6 671 689.6C651.5 689.6 634 686.4 618.3 680.3C603.2 674.4 589.6 665.4 578.4 653.8C567.357 641.887 558.821 627.877 553.3 612.6C547.2 595.7 544.2 577.9 544.4 560C544.4 541.5 547.5 524.3 553.5 508.3C565 477.2 588.9 452.3 619.4 439.4C635.7 432.6 653.2 429.2 670.9 429.4C691.9 429.4 710.1 433.4 725.9 441.6C741.111 449.43 754.317 460.653 764.5 474.4C774.6 488.1 781.7 503.7 786.2 521.3C790.5 538.6 792 556.8 790.8 576ZM668.8 480.4C658 480.4 648.9 482.3 641.9 486C634.9 489.7 629.1 494.3 624.7 499.6C620.51 504.717 617.413 510.639 615.6 517C614 522.3 612.9 527.7 612.5 533.2H723C721.4 515.9 715.4 503.1 707.4 494.1C699 485.2 685.5 480.4 668.8 480.4Z" fill="#1345FF"></path></svg>