<svg width="29" height="29" viewBox="0 0 29 29" fill="none" xmlns="http://www.w3.org/2000/svg">
<path d="M11.532 13.1503C11.8136 12.9464 11.9496 12.6098 11.9496 12.147C11.9593 11.9269 11.914 11.71 11.8169 11.5126C11.7295 11.354 11.6 11.2213 11.4414 11.1275C11.277 11.0277 11.0943 10.9617 10.9041 10.9333C10.697 10.8944 10.4866 10.875 10.2795 10.8782H8.00413V13.4578H10.4672C10.8912 13.461 11.2504 13.3575 11.532 13.1503ZM11.914 15.4807C11.5968 15.2379 11.1728 15.1182 10.6452 15.1182H7.99766V18.1606H10.5934C10.8362 18.1606 11.0595 18.1379 11.2763 18.0926C11.4815 18.0525 11.6771 17.9734 11.8525 17.8596C12.0175 17.7528 12.1502 17.6071 12.2506 17.4194C12.3477 17.2317 12.3962 16.9922 12.3962 16.7041C12.3962 16.1312 12.2344 15.7267 11.914 15.4807ZM14.5 0C6.49263 0 0 6.49263 0 14.5C0 22.5074 6.49263 29 14.5 29C22.5074 29 29 22.5074 29 14.5C29 6.49263 22.5074 0 14.5 0ZM17.2997 9.28583H21.7791V10.3766H17.2997V9.28583ZM14.5 18.2804C14.2905 18.6781 13.9913 19.0216 13.6261 19.2837C13.2442 19.5491 12.8202 19.7433 12.3703 19.8566C11.8996 19.9827 11.4141 20.0448 10.9268 20.0411H5.56696V9.001H10.7779C11.3055 9.001 11.7845 9.04955 12.2214 9.14018C12.6551 9.2308 13.0241 9.38616 13.3348 9.59654C13.6423 9.80692 13.885 10.0885 14.0566 10.4381C14.2249 10.7844 14.3123 11.2181 14.3123 11.7327C14.3123 12.2894 14.186 12.749 13.9336 13.1212C13.6779 13.4934 13.3089 13.7944 12.8073 14.0307C13.4902 14.2249 13.9919 14.5712 14.322 15.0567C14.6586 15.5487 14.8237 16.1377 14.8237 16.8304C14.8237 17.3935 14.7169 17.8758 14.5 18.2804ZM23.5237 16.5714H17.7496C17.7496 17.1993 17.9664 17.8013 18.2933 18.125C18.6234 18.4454 19.096 18.6073 19.7142 18.6073C20.1608 18.6073 20.5395 18.494 20.8632 18.2706C21.1836 18.0473 21.3778 17.811 21.449 17.5651H23.3845C23.0738 18.5263 22.6012 19.2125 21.9604 19.6268C21.326 20.0411 20.5492 20.2482 19.6462 20.2482C19.0151 20.2482 18.4487 20.1446 17.9405 19.9472C17.4518 19.7562 17.0116 19.465 16.6491 19.0895C16.2917 18.7039 16.0154 18.2505 15.8367 17.756C15.6393 17.209 15.5422 16.6329 15.5487 16.0536C15.5487 15.4548 15.649 14.8981 15.8432 14.3802C16.2154 13.3737 16.989 12.5677 17.9761 12.1502C18.5037 11.9301 19.0701 11.8201 19.643 11.8266C20.3227 11.8266 20.9117 11.956 21.4231 12.2214C21.9154 12.4749 22.3428 12.8381 22.6724 13.283C22.9993 13.7265 23.2291 14.2314 23.3748 14.801C23.514 15.3609 23.5625 15.95 23.5237 16.5714ZM19.575 13.4772C19.2254 13.4772 18.9309 13.5387 18.7044 13.6585C18.4778 13.7782 18.2901 13.9271 18.1477 14.0987C18.012 14.2643 17.9118 14.4559 17.8531 14.6618C17.8013 14.8334 17.7657 15.0081 17.7528 15.1862H21.3292C21.2775 14.6262 21.0833 14.2119 20.8243 13.9206C20.5525 13.6326 20.1155 13.4772 19.575 13.4772Z" fill="#1345FF"/>
</svg>
