<svg width="30" height="29" viewBox="0 0 30 29" fill="none" xmlns="http://www.w3.org/2000/svg">
<path d="M29.5 14.5C29.5 6.49187 23.0081 0 15 0C6.99187 0 0.5 6.49187 0.5 14.5C0.5 22.5081 6.99187 29 15 29C23.0081 29 29.5 22.5081 29.5 14.5Z" fill="black"/>
<path d="M11.5093 7.43525C11.324 7.55873 11.23 7.72018 11.23 7.91561V21.3553C11.23 21.5258 11.3263 21.6805 11.5192 21.8243C11.7108 21.9683 11.9469 22.04 12.2287 22.04C12.498 22.04 12.7342 21.9683 12.9393 21.8243C13.1433 21.682 13.2471 21.5258 13.2471 21.3553V7.91674C13.2471 7.72015 13.1483 7.56123 12.9493 7.43528C12.7502 7.31302 12.5105 7.25 12.2287 7.25C11.9345 7.25 11.6947 7.31302 11.5093 7.43525ZM17.3122 12.7735L14.6116 14.488C14.4906 14.6026 14.4385 14.7769 14.4609 15.0149C14.4817 15.2507 14.5894 15.4752 14.7798 15.6869C14.9712 15.9001 15.1851 16.0337 15.4298 16.0904C15.6709 16.1458 15.8539 16.1156 15.9749 16.0021L17.0428 15.3275V21.3553C17.0428 21.5257 17.1355 21.6805 17.3233 21.8243C17.5062 21.9682 17.7412 22.04 18.023 22.04C18.3048 22.04 18.5482 21.9682 18.7522 21.8243C18.9573 21.6805 19.06 21.5257 19.06 21.3553V13.2512C19.06 13.0544 18.9598 12.8957 18.7621 12.7735C18.5642 12.6486 18.3184 12.5879 18.023 12.5879C17.7288 12.5879 17.4926 12.6486 17.3122 12.7735Z" fill="white"/>
</svg>
