<svg width="32" height="32" viewBox="0 0 100 100" fill="none" xmlns="http://www.w3.org/2000/svg">
<rect width="100" height="100" rx="50" fill="black"/>
<path d="M37.9631 25.6388C37.3243 26.0646 37 26.6213 37 27.2952V73.6389C37 74.2268 37.3322 74.7605 37.9974 75.2562C38.658 75.7526 39.4722 76 40.4439 76C41.3726 76 42.187 75.7526 42.8942 75.2562C43.5977 74.7654 43.9556 74.2268 43.9556 73.6389V27.2991C43.9556 26.6212 43.6149 26.0732 42.9286 25.6389C42.2422 25.2173 41.4156 25 40.4439 25C39.4293 25 38.6025 25.2173 37.9632 25.6388H37.9631ZM57.9731 44.0464L48.6606 49.9586C48.2434 50.3539 48.064 50.9547 48.1412 51.7756C48.2129 52.5885 48.5842 53.3626 49.2408 54.0929C49.9006 54.8278 50.6383 55.2886 51.4821 55.4843C52.3134 55.6752 52.9444 55.571 53.3617 55.1796L57.0442 52.8535V73.6389C57.0442 74.2266 57.364 74.7605 58.0114 75.2561C58.6421 75.7525 59.4524 75.9999 60.4242 75.9999C61.3959 75.9999 62.2351 75.7525 62.9386 75.2561C63.6458 74.7604 64 74.2266 64 73.6388V45.6939C64 45.0153 63.6544 44.468 62.9727 44.0464C62.2905 43.6159 61.4427 43.4067 60.4242 43.4067C59.4096 43.4067 58.5954 43.616 57.9731 44.0464Z" fill="white"/>
</svg>
